<svg width="16" height="12" viewBox="0 0 16 12" fill="none" xmlns="http://www.w3.org/2000/svg">
<path d="M6.76724 1.5431C7.06719 1.25744 7.07877 0.782706 6.7931 0.482759C6.50744 0.182811 6.03271 0.171232 5.73276 0.456897L6.76724 1.5431ZM0.482759 5.4569C0.182811 5.74256 0.171232 6.21729 0.456897 6.51724C0.742561 6.81719 1.21729 6.82877 1.51724 6.5431L0.482759 5.4569ZM1.51724 5.4569C1.21729 5.17123 0.742561 5.18281 0.456897 5.48276C0.171232 5.78271 0.182811 6.25744 0.482759 6.5431L1.51724 5.4569ZM5.73276 11.5431C6.03271 11.8288 6.50744 11.8172 6.7931 11.5172C7.07877 11.2173 7.06719 10.7426 6.76724 10.4569L5.73276 11.5431ZM1 5.25C0.585786 5.25 0.25 5.58579 0.25 6C0.25 6.41421 0.585786 6.75 1 6.75V5.25ZM15 6.75C15.4142 6.75 15.75 6.41421 15.75 6C15.75 5.58579 15.4142 5.25 15 5.25V6.75ZM6.25 1L5.73276 0.456897L0.482759 5.4569L1 6L1.51724 6.5431L6.76724 1.5431L6.25 1ZM1 6L0.482759 6.5431L5.73276 11.5431L6.25 11L6.76724 10.4569L1.51724 5.4569L1 6ZM1 6V6.75H15V6V5.25H1V6Z" fill="#BA007C"/>
</svg>
