<svg width="279" height="327" viewBox="0 0 279 327" fill="none" xmlns="http://www.w3.org/2000/svg">
<path d="M16.398 47.5014C6.06006 47.5014 0.000181539 55.3588 0.000175933 63.9304C0.83195 92.7408 1.53296e-06 135.004 0 235.007C7.16129e-05 249.125 3.69134e-05 273.28 1.3759e-05 289.398L0 304.499C2.98347e-05 318.428 5.34711 327 12.1203 327H263.671C271.514 327 279 320.214 279 312.357V16.0719C279 5.00015 272.583 0 262.602 0H63.4526C55.6102 0 49.5501 5.71445 49.5501 13.929V33.9296C49.5501 42.1441 43.1336 47.5014 35.2911 47.5014H16.398Z" fill="#F0F0F0"/>
</svg>
