<svg width="13" height="17" viewBox="0 0 13 17" fill="none" xmlns="http://www.w3.org/2000/svg">
<path fill-rule="evenodd" clip-rule="evenodd" d="M11.7562 14.5442V3.02837C11.7601 2.58258 11.578 2.15356 11.2498 1.83568C10.9216 1.5178 10.4742 1.33712 10.0062 1.33337H3.00617C2.53809 1.33712 2.09074 1.5178 1.76255 1.83568C1.43436 2.15356 1.25221 2.58258 1.25617 3.02837V14.5442C1.21457 14.8767 1.38598 15.2006 1.69136 15.3666C1.99674 15.5325 2.37676 15.5083 2.65617 15.305L5.98117 12.5709C6.28091 12.3132 6.73668 12.3132 7.03642 12.5709L10.3562 15.3059C10.6357 15.5093 11.016 15.5335 11.3214 15.3673C11.6269 15.2011 11.7982 14.8769 11.7562 14.5442Z" fill="#282828" stroke="#282828" stroke-width="1.5" stroke-linecap="round" stroke-linejoin="round"/>
</svg>
