<svg width="21" height="20" viewBox="0 0 21 20" fill="none" xmlns="http://www.w3.org/2000/svg">
<path fill-rule="evenodd" clip-rule="evenodd" d="M15.7562 16.5442V5.02837C15.7601 4.58258 15.578 4.15356 15.2498 3.83568C14.9216 3.5178 14.4742 3.33712 14.0062 3.33337H7.00617C6.53809 3.33712 6.09074 3.5178 5.76255 3.83568C5.43436 4.15356 5.25221 4.58258 5.25617 5.02837V16.5442C5.21457 16.8767 5.38598 17.2006 5.69136 17.3666C5.99674 17.5325 6.37676 17.5083 6.65617 17.305L9.98117 14.5709C10.2809 14.3132 10.7367 14.3132 11.0364 14.5709L14.3562 17.3059C14.6357 17.5093 15.016 17.5335 15.3214 17.3673C15.6269 17.2011 15.7982 16.8769 15.7562 16.5442Z" stroke="#282828" stroke-width="1.5" stroke-linecap="round" stroke-linejoin="round"/>
</svg>
