<svg width="17" height="8" viewBox="0 0 17 8" fill="none" xmlns="http://www.w3.org/2000/svg">
<path d="M8.12123 0.155971C7.8078 0.163505 7.53915 0.26144 7.29736 0.464844L0.482455 6.32589C0.285441 6.49916 0.177978 6.70257 0.177978 6.95117C0.177978 7.45592 0.643649 7.84766 1.24365 7.84766C1.53021 7.84766 1.79887 7.74972 2.00484 7.57645L8.12123 2.30301L14.2376 7.57645C14.4436 7.74972 14.7033 7.84766 14.9988 7.84766C15.5988 7.84766 16.0645 7.45591 16.0645 6.95117C16.0645 6.7101 15.957 6.49916 15.76 6.32589L8.93616 0.464844C8.70332 0.253906 8.43467 0.155971 8.12123 0.155971Z" fill="#7E7E7E"/>
</svg>
