<svg width="17" height="8" viewBox="0 0 17 8" fill="none" xmlns="http://www.w3.org/2000/svg">
<path d="M8.82554 7.84403C9.13898 7.83649 9.40763 7.73856 9.64942 7.53516L16.4643 1.67411C16.6613 1.50084 16.7688 1.29743 16.7688 1.04883C16.7688 0.544085 16.3031 0.152344 15.7031 0.152344C15.4166 0.152344 15.1479 0.250279 14.9419 0.423549L8.82554 5.69699L2.70915 0.423549C2.50318 0.250279 2.24348 0.152344 1.94796 0.152344C1.34796 0.152344 0.882289 0.544085 0.882289 1.04883C0.882289 1.2899 0.989751 1.50084 1.18676 1.67411L8.01062 7.53516C8.24346 7.74609 8.51211 7.84403 8.82554 7.84403Z" fill="#FF0000" fill-opacity="0.5"/>
</svg>
