<svg width="26" height="26" viewBox="0 0 26 26" fill="none" xmlns="http://www.w3.org/2000/svg">
<path d="M0.802411 23.8265C0.314256 24.3147 0.314256 25.1062 0.802411 25.5943C1.29057 26.0825 2.08202 26.0825 2.57018 25.5943L0.802411 23.8265ZM25.1976 2.96689C25.6858 2.47874 25.6858 1.68728 25.1976 1.19912C24.7094 0.710969 23.918 0.710969 23.4298 1.19912L25.1976 2.96689ZM2.57018 1.19959C2.08202 0.711433 1.29057 0.711433 0.802412 1.19959C0.314257 1.68774 0.314257 2.4792 0.802412 2.96736L2.57018 1.19959ZM23.4298 25.5948C23.918 26.0829 24.7094 26.0829 25.1976 25.5948C25.6858 25.1066 25.6858 24.3152 25.1976 23.827L23.4298 25.5948ZM2.57018 25.5943L25.1976 2.96689L23.4298 1.19912L0.802411 23.8265L2.57018 25.5943ZM0.802412 2.96736L23.4298 25.5948L25.1976 23.827L2.57018 1.19959L0.802412 2.96736Z" fill="black"/>
</svg>
