<svg width="31" height="31" viewBox="0 0 31 31" fill="none" xmlns="http://www.w3.org/2000/svg">
<path d="M1.37987 15.3949C1.37987 8.90506 1.37987 5.66017 3.396 3.64406C5.41211 1.62793 8.657 1.62793 15.1468 1.62793C21.6365 1.62793 24.8815 1.62793 26.8976 3.64406C28.9137 5.66017 28.9137 8.90506 28.9137 15.3949C28.9137 21.8846 28.9137 25.1296 26.8976 27.1456C24.8815 29.1618 21.6365 29.1618 15.1468 29.1618C8.657 29.1618 5.41211 29.1618 3.396 27.1456C1.37987 25.1296 1.37987 21.8846 1.37987 15.3949Z" stroke="currentColor" stroke-width="2.2"/>
<path d="M8.56262 18.388L10.9288 15.1613C11.8665 13.8827 12.3353 13.2433 12.952 13.2433C13.5688 13.2433 14.0376 13.8827 14.9754 15.1613L15.3183 15.629C16.256 16.9076 16.7248 17.547 17.3416 17.547C17.9583 17.547 18.4272 16.9076 19.3648 15.629L21.731 12.4023" stroke="currentColor" stroke-width="2.2" stroke-linecap="round"/>
</svg>
