<svg width="19" height="19" viewBox="0 0 19 19" fill="none" xmlns="http://www.w3.org/2000/svg">
<path d="M17.2011 2.59917L17.201 2.5988L17.1772 2.57441L16.4105 1.78886C15.8387 1.20304 15.0817 0.9 14.3238 0.9C13.566 0.9 12.8089 1.20303 12.2372 1.78886L1.78738 12.4952C1.57635 12.7115 1.44171 12.9871 1.40317 13.2829L1.40315 13.2829L1.40298 13.2845L0.903669 17.6511L0.903647 17.6511L0.903452 17.6532C0.862542 18.0929 1.19117 18.4567 1.60929 18.4567H1.68057V18.4575L1.69248 18.456L5.95443 17.9445L5.95606 17.9442C6.24279 17.905 6.53262 17.7683 6.72894 17.548L17.1765 6.84383C17.1766 6.84374 17.1767 6.84365 17.1768 6.84356C18.3311 5.67947 18.3382 3.79017 17.2011 2.59917ZM16.542 4.71275C16.5587 5.12003 16.4113 5.49308 16.1307 5.78368L16.1247 5.78989L15.8753 6.04536L13.0193 3.11919L13.272 2.86024C13.5568 2.56845 13.9235 2.4154 14.306 2.4154C14.6903 2.4154 15.0731 2.56962 15.3379 2.85803L15.3379 2.85806L15.34 2.86024L16.1068 3.6458C16.3916 3.93765 16.5419 4.31453 16.5419 4.70867H16.5419L16.542 4.71275ZM6.37048 15.7835L3.51444 12.8574L11.9699 4.19424L14.826 7.12042L6.37048 15.7835ZM2.49028 16.8175L2.78967 14.2828L4.97997 16.5269L2.49028 16.8175Z" fill="#808080" stroke="#808080" stroke-width="0.2"/>
</svg>
