<svg width="20" height="18" viewBox="0 0 20 18" fill="none" xmlns="http://www.w3.org/2000/svg">
<path d="M2.31965 2.3934L2.31964 2.3934C0.425541 4.3824 0.428055 7.56507 2.31957 9.55501C2.31957 9.55501 2.31958 9.55502 2.31958 9.55502L9.43493 17.0432L9.43504 17.0433C9.58135 17.1968 9.78406 17.2837 9.99614 17.2837C10.2081 17.2837 10.4109 17.1968 10.5572 17.0433L10.5573 17.0433C11.9084 15.6244 13.2594 14.2053 14.6103 12.7862C15.6334 11.7115 16.6564 10.6368 17.6795 9.56231C19.5735 7.57339 19.5735 4.38905 17.6795 2.40063C15.7828 0.408934 12.6463 0.408937 10.7495 2.40063L10.7495 2.40067L9.99923 3.18926L9.2421 2.39359L9.24207 2.39356C8.29406 1.39809 7.0389 0.9 5.78108 0.9C4.52344 0.9 3.26772 1.39796 2.31965 2.3934Z" fill="#808080" stroke="#808080" stroke-width="0.2"/>
</svg>
