<svg width="27" height="27" viewBox="0 0 27 27" fill="none" xmlns="http://www.w3.org/2000/svg">
<path d="M21.7049 14.5343V14.2493C21.7049 12.99 20.6839 11.9691 19.4247 11.9691H17.4294C16.0127 11.9691 14.8642 13.1176 14.8642 14.5343C14.8642 15.9511 16.0127 17.0996 17.4294 17.0996H19.1396C20.5563 17.0996 21.7049 18.2482 21.7049 19.6649C21.7049 21.0816 20.5563 22.2301 19.1396 22.2301H17.4294C16.0127 22.2301 14.8642 21.0816 14.8642 19.6649M11.4438 11.114V19.6649C11.4438 21.0816 10.2953 22.2301 8.87855 22.2301C7.46179 22.2301 6.31328 21.0816 6.31328 19.6649M1.18275 1.70801H25.1252V25.6505H1.18275V1.70801Z" stroke="currentColor" stroke-width="2"/>
</svg>
