<svg width="37" height="36" viewBox="0 0 37 36" fill="none" xmlns="http://www.w3.org/2000/svg">
<path d="M30.3422 9.12363L19.4397 2.58481C19.0481 2.36155 18.6051 2.24414 18.1543 2.24414C17.7036 2.24414 17.2606 2.36155 16.869 2.58481L5.96577 9.12293C5.57285 9.36371 5.24867 9.70176 5.02455 10.1044C4.80043 10.5071 4.68394 10.9607 4.68634 11.4215V24.4803C4.68399 24.9414 4.80047 25.3953 5.02457 25.7983C5.24867 26.2013 5.57282 26.5397 5.96577 26.781L8.82484 28.4883L8.84097 28.4974C10.2845 29.236 10.8373 29.236 11.4777 29.236C13.7321 29.236 15.1329 27.777 15.1329 25.4279V12.7662C15.1342 12.6081 15.0728 12.456 14.962 12.3432C14.8513 12.2303 14.7003 12.166 14.5423 12.1644H12.9725C12.8144 12.166 12.6634 12.2303 12.5527 12.3432C12.442 12.456 12.3805 12.6081 12.3818 12.7662V25.4279C12.3876 25.6092 12.3463 25.7888 12.2621 25.9495C12.1779 26.1101 12.0537 26.2462 11.9014 26.3447C11.4875 26.5972 10.8864 26.5439 10.2081 26.1939L7.46825 24.5448C7.45777 24.5376 7.4492 24.528 7.44333 24.5167C7.43746 24.5055 7.43445 24.493 7.43459 24.4803V11.606C7.43504 11.5912 7.43903 11.5768 7.44623 11.5638C7.45343 11.5509 7.46363 11.5399 7.47597 11.5317L18.1266 5.00828C18.1346 5.00433 18.1434 5.00227 18.1522 5.00227C18.1611 5.00227 18.1699 5.00433 18.1778 5.00828L28.8348 11.5317C28.8469 11.5405 28.8568 11.5521 28.8635 11.5656C28.8702 11.579 28.8736 11.5938 28.8734 11.6088V24.4803C28.8737 24.4936 28.871 24.5068 28.8655 24.5189C28.8601 24.531 28.852 24.5418 28.8418 24.5504L18.1757 30.909C18.1576 30.9153 18.1378 30.9153 18.1196 30.909L15.3959 29.2914C15.3151 29.2386 15.2217 29.2081 15.1252 29.203C15.0287 29.198 14.9326 29.2186 14.8467 29.2627L14.8229 29.2767C14.0709 29.7221 13.8689 29.8379 13.1717 30.0918C13.058 30.1332 12.7908 30.2321 12.7676 30.4965C12.7445 30.761 12.9984 30.9489 13.2243 31.0801L16.8647 33.3156C17.2526 33.548 17.6962 33.6709 18.1484 33.6712H18.1891C18.6299 33.6643 19.0612 33.5417 19.4397 33.3156L30.3422 26.7831C30.735 26.5411 31.0589 26.2022 31.2829 25.7989C31.507 25.3957 31.6236 24.9416 31.6216 24.4803V11.4215C31.6239 10.9609 31.5073 10.5074 31.2832 10.1049C31.0591 9.70235 30.735 9.3644 30.3422 9.12363Z" fill="currentColor"/>
<path d="M21.7931 22.3092C19.1774 22.3092 18.6198 21.5783 18.4542 20.3985C18.4356 20.258 18.3671 20.1289 18.2613 20.0347C18.1555 19.9405 18.0193 19.8874 17.8776 19.8851H16.4888C16.3322 19.8884 16.1834 19.9536 16.0748 20.0664C15.9662 20.1791 15.9068 20.3304 15.9094 20.4869C15.9094 21.5096 16.2685 24.8478 21.7959 24.8478C23.506 24.8478 24.9285 24.4479 25.9084 23.6911C26.8883 22.9342 27.413 21.833 27.413 20.5206C27.413 17.8867 25.6945 17.1656 22.31 16.6942C18.8695 16.2158 18.8695 15.9724 18.8695 15.4393C18.8695 15.0556 18.8695 14.1571 21.3568 14.1571C23.1265 14.1571 24.0741 14.3809 24.3772 15.56C24.404 15.6907 24.4747 15.8084 24.5775 15.8934C24.6803 15.9785 24.8091 16.0259 24.9425 16.0278H26.3363C26.4184 16.027 26.4995 16.0087 26.574 15.9741C26.6485 15.9395 26.7147 15.8895 26.7684 15.8272C26.8755 15.7021 26.929 15.5398 26.9171 15.3755C26.7368 12.8819 24.9138 11.6172 21.3589 11.6172C18.128 11.6172 16.1998 13.0727 16.1998 15.5102C16.1998 18.1827 18.1982 18.9381 21.2003 19.251C24.7075 19.6136 24.7075 20.1425 24.7075 20.6097C24.7097 21.3377 24.4073 22.3092 21.7931 22.3092Z" fill="currentColor"/>
</svg>
