<svg width="37" height="37" viewBox="0 0 37 37" fill="none" xmlns="http://www.w3.org/2000/svg">
<path fill-rule="evenodd" clip-rule="evenodd" d="M5.65182 9.85695C5.65182 7.54996 7.49283 5.76349 9.77852 4.62065C12.1313 3.44425 15.3031 2.74902 18.7454 2.74902C22.1876 2.74902 25.3595 3.44425 27.7123 4.62065C29.9979 5.76349 31.8389 7.54996 31.8389 9.85695V27.8138C31.8389 30.1208 29.9979 31.9072 27.7123 33.05C25.3595 34.2265 22.1876 34.9217 18.7454 34.9217C15.3031 34.9217 12.1313 34.2265 9.77852 33.05C7.49283 31.9072 5.65182 30.1208 5.65182 27.8138V9.85695ZM7.89643 9.85695C7.89643 8.85818 8.73527 7.65183 10.7823 6.62829C12.7623 5.63833 15.5761 4.99363 18.7454 4.99363C21.9148 4.99363 24.7284 5.63833 26.7083 6.62829C28.7554 7.65183 29.5943 8.85818 29.5943 9.85695C29.5943 10.8557 28.7554 12.0621 26.7083 13.0856C24.7284 14.0756 21.9148 14.7203 18.7454 14.7203C15.5761 14.7203 12.7623 14.0756 10.7823 13.0856C8.73527 12.0621 7.89643 10.8557 7.89643 9.85695ZM7.89643 27.8138C7.89643 28.8125 8.73527 30.0189 10.7823 31.0425C12.7623 32.0325 15.5761 32.6771 18.7454 32.6771C21.9148 32.6771 24.7284 32.0325 26.7083 31.0425C28.7554 30.0189 29.5943 28.8125 29.5943 27.8138V22.8865C29.0306 23.3361 28.3911 23.7322 27.7123 24.0716C25.3595 25.2481 22.1876 25.9433 18.7454 25.9433C15.3031 25.9433 12.1313 25.2481 9.77852 24.0716C9.09975 23.7322 8.4602 23.3361 7.89643 22.8865V27.8138ZM29.5943 13.9081V18.8354C29.5943 19.8341 28.7554 21.0405 26.7083 22.064C24.7284 23.0541 21.9148 23.6987 18.7454 23.6987C15.5761 23.6987 12.7623 23.0541 10.7823 22.064C8.73527 21.0405 7.89643 19.8341 7.89643 18.8354V13.9081C8.4602 14.3577 9.09975 14.7539 9.77852 15.0933C12.1313 16.2696 15.3031 16.9649 18.7454 16.9649C22.1876 16.9649 25.3595 16.2696 27.7123 15.0933C28.3911 14.7539 29.0306 14.3577 29.5943 13.9081Z" fill="currentColor"/>
</svg>
