<svg width="30" height="30" viewBox="0 0 36 37" fill="none" xmlns="http://www.w3.org/2000/svg">
<g clip-path="url(#clip0_2058_1585)">
<mask id="path-1-outside-1_2058_1585" maskUnits="userSpaceOnUse" x="3.71898" y="0.0078125" width="28" height="38" fill="currentColor">
<rect fill="white" x="3.71898" y="0.0078125" width="28" height="38"/>
<path d="M13.6022 15.5886C13.2705 14.8552 13.1218 13.9997 13.3752 13.2226C13.6286 12.428 14.1961 11.7907 14.7636 11.1969C16.3436 9.61652 18.2908 8.45535 19.8362 6.84899C20.6917 5.96706 21.3988 4.91063 21.6432 3.69692C21.8441 2.80645 21.7482 1.88973 21.5649 1.00781C22.3856 1.94206 22.6562 3.27788 22.4204 4.48282C22.1673 5.83604 21.4162 7.03213 20.5345 8.06234C19.8274 8.89193 19.0153 9.62529 18.1685 10.3065C17.1819 11.101 16.2129 11.9565 15.5931 13.0741C15.069 13.982 14.9467 15.0996 15.3048 16.0863C15.8899 17.7799 17.2517 19.0373 17.994 20.635C17.1731 19.9102 16.37 19.1594 15.6189 18.365C14.8334 17.5268 14.0912 16.6364 13.6022 15.5886ZM18.0549 14.2614C17.9066 15.6497 18.631 16.9593 19.4956 17.9896C19.9145 18.4523 20.2725 19.0198 20.2899 19.666C20.3075 20.53 19.8188 21.3336 19.1897 21.9008C19.3384 21.8836 19.4431 21.7525 19.5653 21.6827C20.5083 21.0802 21.4161 20.3206 21.8788 19.2819C22.1844 18.5746 22.1147 17.7363 21.7132 17.0814C21.2415 16.3131 20.6218 15.6321 20.2551 14.794C20.054 14.3226 19.9842 13.7726 20.1502 13.2749C20.3686 12.6027 20.84 12.0525 21.3377 11.5723C22.7084 10.2716 24.3672 9.34576 25.9563 8.33316C23.9481 8.90933 21.9663 9.70392 20.2725 10.9526C19.1986 11.7558 18.2034 12.8732 18.0549 14.2614ZM27.598 20.8271C28.5497 20.8796 29.4836 21.578 29.6584 22.5385C29.8243 23.3679 29.4228 24.1885 28.9075 24.8171C28.0605 25.8298 26.9166 26.5546 25.7645 27.1745C25.6508 27.2441 25.5548 27.3315 25.4675 27.4276C26.9867 27.0434 28.5057 26.4674 29.7369 25.4807C30.4177 24.9132 31.0201 24.1621 31.1512 23.2628C31.2735 22.4859 30.9506 21.6826 30.3743 21.1676C29.6756 20.5299 28.6893 20.2944 27.7636 20.4167C27.231 20.4865 26.6462 20.6 26.2795 21.0453C26.7162 20.9582 27.1437 20.7834 27.598 20.8271ZM8.64315 23.3239C9.7867 23.6295 10.9655 23.7169 12.1354 23.7956C13.1831 23.8654 14.231 23.883 15.2875 23.8741C18.0114 23.8307 20.7528 23.6471 23.4244 23.0535C23.6775 22.9925 23.957 22.9488 24.1843 22.7917C24.6295 22.5034 25.1181 22.2763 25.5985 22.0493C23.4244 22.3986 21.2416 22.6957 19.0416 22.8353C16.8152 22.975 14.5712 23.0623 12.3363 22.9139C11.699 22.8529 11.044 22.8178 10.4504 22.5732C10.3105 22.5121 10.1184 22.3902 10.1882 22.2065C10.3193 21.9708 10.5812 21.8574 10.8082 21.7352C11.7688 21.2811 12.8164 21.028 13.8379 20.7312C12.0829 20.7048 10.3366 21.15 8.73048 21.8399C8.37239 22.0146 7.97082 22.1542 7.6828 22.4511C7.56903 22.5731 7.56903 22.783 7.70013 22.8876C7.96212 23.1233 8.31115 23.228 8.64315 23.3239ZM22.7873 25.7252C21.2592 25.9958 19.7224 26.2493 18.177 26.3276C16.4832 26.4411 14.7894 26.345 13.1132 26.1704C12.7903 26.1267 12.4671 26.0745 12.1791 25.9261C12.0307 25.8387 11.8823 25.6991 11.8911 25.5155C11.9084 25.2275 12.1527 25.0268 12.3275 24.8171C11.7864 25.0093 11.2449 25.2099 10.791 25.5683C10.5986 25.7167 10.4067 25.9522 10.459 26.2141C10.5379 26.5197 10.8347 26.703 11.0966 26.8426C11.7425 27.1746 12.4672 27.3228 13.1746 27.4539C14.964 27.7422 16.7889 27.7509 18.5874 27.6284C20.4912 27.48 22.3855 27.1659 24.2277 26.6244C23.7039 26.3889 23.2062 26.1179 22.7873 25.7252ZM13.1918 28.7463C12.7029 28.8859 12.2052 29.052 11.8037 29.3746C11.6025 29.5318 11.4456 29.8028 11.5418 30.0559C11.664 30.3789 11.9697 30.5713 12.2575 30.7367C13.0086 31.1473 13.8553 31.3391 14.6847 31.4878C16.5621 31.7844 18.4914 31.7409 20.3599 31.4092C21.4686 31.1996 22.5775 30.9027 23.6077 30.4402C22.9354 30.1607 22.2808 29.8463 21.6522 29.4797C20.5608 29.6717 19.4605 29.8727 18.3429 29.9425C16.8677 30.056 15.3745 29.9337 13.899 29.7504C13.5496 29.6718 13.1132 29.637 12.8775 29.3313C12.7555 29.0778 13.0347 28.8945 13.1918 28.7463ZM25.1358 34.36C26.3579 34.1072 27.5892 33.8186 28.7066 33.2513C29.0557 33.0502 29.4836 32.8319 29.5973 32.4131C29.6584 32.0115 29.2393 31.8019 28.9424 31.6359C29.1257 31.8459 29.2479 32.1513 29.0645 32.3956C28.7588 32.8061 28.2353 32.9631 27.7724 33.1203C26.3232 33.5307 24.8213 33.6966 23.3284 33.8626C19.3734 34.2204 15.3919 34.3078 11.4371 33.9761C10.1099 33.8362 8.75636 33.6878 7.49047 33.2165C7.28986 33.1291 6.98424 33.0417 6.98424 32.7709C7.06259 32.5357 7.28986 32.4043 7.49047 32.2908C8.39848 31.8282 9.41129 31.5748 10.424 31.5138C10.1275 31.3391 9.77815 31.3217 9.43767 31.3305C8.59061 31.3567 7.76123 31.5748 6.95815 31.8459C6.26835 32.0987 5.56116 32.3783 5.01095 32.8848C4.79273 33.0766 4.59212 33.4432 4.81882 33.7054C5.16814 34.0809 5.70958 34.1767 6.18944 34.2902C8.87862 34.7531 11.6025 35.0147 14.3269 35.1109C17.9415 35.2159 21.5822 35.0587 25.1358 34.36ZM28.7154 34.8317C27.0739 35.3555 25.3715 35.6435 23.6775 35.8794C20.7528 36.246 17.8016 36.3595 14.8593 36.2724C13.0696 36.2026 11.2799 36.0803 9.51602 35.7832C9.92636 36.0626 10.4329 36.1498 10.9044 36.2809C12.8865 36.7001 14.9205 36.7787 16.9375 36.8397C19.8969 36.8922 22.8568 36.7787 25.773 36.3159C27.1527 36.0718 28.5408 35.7747 29.7803 35.1285C30.4267 34.788 31.0817 34.2639 31.1947 33.5046C30.5401 34.2028 29.5973 34.5261 28.7154 34.8317Z"/>
</mask>
<path d="M13.6022 15.5886C13.2705 14.8552 13.1218 13.9997 13.3752 13.2226C13.6286 12.428 14.1961 11.7907 14.7636 11.1969C16.3436 9.61652 18.2908 8.45535 19.8362 6.84899C20.6917 5.96706 21.3988 4.91063 21.6432 3.69692C21.8441 2.80645 21.7482 1.88973 21.5649 1.00781C22.3856 1.94206 22.6562 3.27788 22.4204 4.48282C22.1673 5.83604 21.4162 7.03213 20.5345 8.06234C19.8274 8.89193 19.0153 9.62529 18.1685 10.3065C17.1819 11.101 16.2129 11.9565 15.5931 13.0741C15.069 13.982 14.9467 15.0996 15.3048 16.0863C15.8899 17.7799 17.2517 19.0373 17.994 20.635C17.1731 19.9102 16.37 19.1594 15.6189 18.365C14.8334 17.5268 14.0912 16.6364 13.6022 15.5886ZM18.0549 14.2614C17.9066 15.6497 18.631 16.9593 19.4956 17.9896C19.9145 18.4523 20.2725 19.0198 20.2899 19.666C20.3075 20.53 19.8188 21.3336 19.1897 21.9008C19.3384 21.8836 19.4431 21.7525 19.5653 21.6827C20.5083 21.0802 21.4161 20.3206 21.8788 19.2819C22.1844 18.5746 22.1147 17.7363 21.7132 17.0814C21.2415 16.3131 20.6218 15.6321 20.2551 14.794C20.054 14.3226 19.9842 13.7726 20.1502 13.2749C20.3686 12.6027 20.84 12.0525 21.3377 11.5723C22.7084 10.2716 24.3672 9.34576 25.9563 8.33316C23.9481 8.90933 21.9663 9.70392 20.2725 10.9526C19.1986 11.7558 18.2034 12.8732 18.0549 14.2614ZM27.598 20.8271C28.5497 20.8796 29.4836 21.578 29.6584 22.5385C29.8243 23.3679 29.4228 24.1885 28.9075 24.8171C28.0605 25.8298 26.9166 26.5546 25.7645 27.1745C25.6508 27.2441 25.5548 27.3315 25.4675 27.4276C26.9867 27.0434 28.5057 26.4674 29.7369 25.4807C30.4177 24.9132 31.0201 24.1621 31.1512 23.2628C31.2735 22.4859 30.9506 21.6826 30.3743 21.1676C29.6756 20.5299 28.6893 20.2944 27.7636 20.4167C27.231 20.4865 26.6462 20.6 26.2795 21.0453C26.7162 20.9582 27.1437 20.7834 27.598 20.8271ZM8.64315 23.3239C9.7867 23.6295 10.9655 23.7169 12.1354 23.7956C13.1831 23.8654 14.231 23.883 15.2875 23.8741C18.0114 23.8307 20.7528 23.6471 23.4244 23.0535C23.6775 22.9925 23.957 22.9488 24.1843 22.7917C24.6295 22.5034 25.1181 22.2763 25.5985 22.0493C23.4244 22.3986 21.2416 22.6957 19.0416 22.8353C16.8152 22.975 14.5712 23.0623 12.3363 22.9139C11.699 22.8529 11.044 22.8178 10.4504 22.5732C10.3105 22.5121 10.1184 22.3902 10.1882 22.2065C10.3193 21.9708 10.5812 21.8574 10.8082 21.7352C11.7688 21.2811 12.8164 21.028 13.8379 20.7312C12.0829 20.7048 10.3366 21.15 8.73048 21.8399C8.37239 22.0146 7.97082 22.1542 7.6828 22.4511C7.56903 22.5731 7.56903 22.783 7.70013 22.8876C7.96212 23.1233 8.31115 23.228 8.64315 23.3239ZM22.7873 25.7252C21.2592 25.9958 19.7224 26.2493 18.177 26.3276C16.4832 26.4411 14.7894 26.345 13.1132 26.1704C12.7903 26.1267 12.4671 26.0745 12.1791 25.9261C12.0307 25.8387 11.8823 25.6991 11.8911 25.5155C11.9084 25.2275 12.1527 25.0268 12.3275 24.8171C11.7864 25.0093 11.2449 25.2099 10.791 25.5683C10.5986 25.7167 10.4067 25.9522 10.459 26.2141C10.5379 26.5197 10.8347 26.703 11.0966 26.8426C11.7425 27.1746 12.4672 27.3228 13.1746 27.4539C14.964 27.7422 16.7889 27.7509 18.5874 27.6284C20.4912 27.48 22.3855 27.1659 24.2277 26.6244C23.7039 26.3889 23.2062 26.1179 22.7873 25.7252ZM13.1918 28.7463C12.7029 28.8859 12.2052 29.052 11.8037 29.3746C11.6025 29.5318 11.4456 29.8028 11.5418 30.0559C11.664 30.3789 11.9697 30.5713 12.2575 30.7367C13.0086 31.1473 13.8553 31.3391 14.6847 31.4878C16.5621 31.7844 18.4914 31.7409 20.3599 31.4092C21.4686 31.1996 22.5775 30.9027 23.6077 30.4402C22.9354 30.1607 22.2808 29.8463 21.6522 29.4797C20.5608 29.6717 19.4605 29.8727 18.3429 29.9425C16.8677 30.056 15.3745 29.9337 13.899 29.7504C13.5496 29.6718 13.1132 29.637 12.8775 29.3313C12.7555 29.0778 13.0347 28.8945 13.1918 28.7463ZM25.1358 34.36C26.3579 34.1072 27.5892 33.8186 28.7066 33.2513C29.0557 33.0502 29.4836 32.8319 29.5973 32.4131C29.6584 32.0115 29.2393 31.8019 28.9424 31.6359C29.1257 31.8459 29.2479 32.1513 29.0645 32.3956C28.7588 32.8061 28.2353 32.9631 27.7724 33.1203C26.3232 33.5307 24.8213 33.6966 23.3284 33.8626C19.3734 34.2204 15.3919 34.3078 11.4371 33.9761C10.1099 33.8362 8.75636 33.6878 7.49047 33.2165C7.28986 33.1291 6.98424 33.0417 6.98424 32.7709C7.06259 32.5357 7.28986 32.4043 7.49047 32.2908C8.39848 31.8282 9.41129 31.5748 10.424 31.5138C10.1275 31.3391 9.77815 31.3217 9.43767 31.3305C8.59061 31.3567 7.76123 31.5748 6.95815 31.8459C6.26835 32.0987 5.56116 32.3783 5.01095 32.8848C4.79273 33.0766 4.59212 33.4432 4.81882 33.7054C5.16814 34.0809 5.70958 34.1767 6.18944 34.2902C8.87862 34.7531 11.6025 35.0147 14.3269 35.1109C17.9415 35.2159 21.5822 35.0587 25.1358 34.36ZM28.7154 34.8317C27.0739 35.3555 25.3715 35.6435 23.6775 35.8794C20.7528 36.246 17.8016 36.3595 14.8593 36.2724C13.0696 36.2026 11.2799 36.0803 9.51602 35.7832C9.92636 36.0626 10.4329 36.1498 10.9044 36.2809C12.8865 36.7001 14.9205 36.7787 16.9375 36.8397C19.8969 36.8922 22.8568 36.7787 25.773 36.3159C27.1527 36.0718 28.5408 35.7747 29.7803 35.1285C30.4267 34.788 31.0817 34.2639 31.1947 33.5046C30.5401 34.2028 29.5973 34.5261 28.7154 34.8317Z" fill="currentColor"/>
<path d="M13.6022 15.5886C13.2705 14.8552 13.1218 13.9997 13.3752 13.2226C13.6286 12.428 14.1961 11.7907 14.7636 11.1969C16.3436 9.61652 18.2908 8.45535 19.8362 6.84899C20.6917 5.96706 21.3988 4.91063 21.6432 3.69692C21.8441 2.80645 21.7482 1.88973 21.5649 1.00781C22.3856 1.94206 22.6562 3.27788 22.4204 4.48282C22.1673 5.83604 21.4162 7.03213 20.5345 8.06234C19.8274 8.89193 19.0153 9.62529 18.1685 10.3065C17.1819 11.101 16.2129 11.9565 15.5931 13.0741C15.069 13.982 14.9467 15.0996 15.3048 16.0863C15.8899 17.7799 17.2517 19.0373 17.994 20.635C17.1731 19.9102 16.37 19.1594 15.6189 18.365C14.8334 17.5268 14.0912 16.6364 13.6022 15.5886ZM18.0549 14.2614C17.9066 15.6497 18.631 16.9593 19.4956 17.9896C19.9145 18.4523 20.2725 19.0198 20.2899 19.666C20.3075 20.53 19.8188 21.3336 19.1897 21.9008C19.3384 21.8836 19.4431 21.7525 19.5653 21.6827C20.5083 21.0802 21.4161 20.3206 21.8788 19.2819C22.1844 18.5746 22.1147 17.7363 21.7132 17.0814C21.2415 16.3131 20.6218 15.6321 20.2551 14.794C20.054 14.3226 19.9842 13.7726 20.1502 13.2749C20.3686 12.6027 20.84 12.0525 21.3377 11.5723C22.7084 10.2716 24.3672 9.34576 25.9563 8.33316C23.9481 8.90933 21.9663 9.70392 20.2725 10.9526C19.1986 11.7558 18.2034 12.8732 18.0549 14.2614ZM27.598 20.8271C28.5497 20.8796 29.4836 21.578 29.6584 22.5385C29.8243 23.3679 29.4228 24.1885 28.9075 24.8171C28.0605 25.8298 26.9166 26.5546 25.7645 27.1745C25.6508 27.2441 25.5548 27.3315 25.4675 27.4276C26.9867 27.0434 28.5057 26.4674 29.7369 25.4807C30.4177 24.9132 31.0201 24.1621 31.1512 23.2628C31.2735 22.4859 30.9506 21.6826 30.3743 21.1676C29.6756 20.5299 28.6893 20.2944 27.7636 20.4167C27.231 20.4865 26.6462 20.6 26.2795 21.0453C26.7162 20.9582 27.1437 20.7834 27.598 20.8271ZM8.64315 23.3239C9.7867 23.6295 10.9655 23.7169 12.1354 23.7956C13.1831 23.8654 14.231 23.883 15.2875 23.8741C18.0114 23.8307 20.7528 23.6471 23.4244 23.0535C23.6775 22.9925 23.957 22.9488 24.1843 22.7917C24.6295 22.5034 25.1181 22.2763 25.5985 22.0493C23.4244 22.3986 21.2416 22.6957 19.0416 22.8353C16.8152 22.975 14.5712 23.0623 12.3363 22.9139C11.699 22.8529 11.044 22.8178 10.4504 22.5732C10.3105 22.5121 10.1184 22.3902 10.1882 22.2065C10.3193 21.9708 10.5812 21.8574 10.8082 21.7352C11.7688 21.2811 12.8164 21.028 13.8379 20.7312C12.0829 20.7048 10.3366 21.15 8.73048 21.8399C8.37239 22.0146 7.97082 22.1542 7.6828 22.4511C7.56903 22.5731 7.56903 22.783 7.70013 22.8876C7.96212 23.1233 8.31115 23.228 8.64315 23.3239ZM22.7873 25.7252C21.2592 25.9958 19.7224 26.2493 18.177 26.3276C16.4832 26.4411 14.7894 26.345 13.1132 26.1704C12.7903 26.1267 12.4671 26.0745 12.1791 25.9261C12.0307 25.8387 11.8823 25.6991 11.8911 25.5155C11.9084 25.2275 12.1527 25.0268 12.3275 24.8171C11.7864 25.0093 11.2449 25.2099 10.791 25.5683C10.5986 25.7167 10.4067 25.9522 10.459 26.2141C10.5379 26.5197 10.8347 26.703 11.0966 26.8426C11.7425 27.1746 12.4672 27.3228 13.1746 27.4539C14.964 27.7422 16.7889 27.7509 18.5874 27.6284C20.4912 27.48 22.3855 27.1659 24.2277 26.6244C23.7039 26.3889 23.2062 26.1179 22.7873 25.7252ZM13.1918 28.7463C12.7029 28.8859 12.2052 29.052 11.8037 29.3746C11.6025 29.5318 11.4456 29.8028 11.5418 30.0559C11.664 30.3789 11.9697 30.5713 12.2575 30.7367C13.0086 31.1473 13.8553 31.3391 14.6847 31.4878C16.5621 31.7844 18.4914 31.7409 20.3599 31.4092C21.4686 31.1996 22.5775 30.9027 23.6077 30.4402C22.9354 30.1607 22.2808 29.8463 21.6522 29.4797C20.5608 29.6717 19.4605 29.8727 18.3429 29.9425C16.8677 30.056 15.3745 29.9337 13.899 29.7504C13.5496 29.6718 13.1132 29.637 12.8775 29.3313C12.7555 29.0778 13.0347 28.8945 13.1918 28.7463ZM25.1358 34.36C26.3579 34.1072 27.5892 33.8186 28.7066 33.2513C29.0557 33.0502 29.4836 32.8319 29.5973 32.4131C29.6584 32.0115 29.2393 31.8019 28.9424 31.6359C29.1257 31.8459 29.2479 32.1513 29.0645 32.3956C28.7588 32.8061 28.2353 32.9631 27.7724 33.1203C26.3232 33.5307 24.8213 33.6966 23.3284 33.8626C19.3734 34.2204 15.3919 34.3078 11.4371 33.9761C10.1099 33.8362 8.75636 33.6878 7.49047 33.2165C7.28986 33.1291 6.98424 33.0417 6.98424 32.7709C7.06259 32.5357 7.28986 32.4043 7.49047 32.2908C8.39848 31.8282 9.41129 31.5748 10.424 31.5138C10.1275 31.3391 9.77815 31.3217 9.43767 31.3305C8.59061 31.3567 7.76123 31.5748 6.95815 31.8459C6.26835 32.0987 5.56116 32.3783 5.01095 32.8848C4.79273 33.0766 4.59212 33.4432 4.81882 33.7054C5.16814 34.0809 5.70958 34.1767 6.18944 34.2902C8.87862 34.7531 11.6025 35.0147 14.3269 35.1109C17.9415 35.2159 21.5822 35.0587 25.1358 34.36ZM28.7154 34.8317C27.0739 35.3555 25.3715 35.6435 23.6775 35.8794C20.7528 36.246 17.8016 36.3595 14.8593 36.2724C13.0696 36.2026 11.2799 36.0803 9.51602 35.7832C9.92636 36.0626 10.4329 36.1498 10.9044 36.2809C12.8865 36.7001 14.9205 36.7787 16.9375 36.8397C19.8969 36.8922 22.8568 36.7787 25.773 36.3159C27.1527 36.0718 28.5408 35.7747 29.7803 35.1285C30.4267 34.788 31.0817 34.2639 31.1947 33.5046C30.5401 34.2028 29.5973 34.5261 28.7154 34.8317Z" stroke="currentColor" stroke-width="0.4" mask="url(#path-1-outside-1_2058_1585)"/>
</g>
<defs>
<clipPath id="clip0_2058_1585">
<rect width="35.9137" height="35.9137" fill="white" transform="translate(0 0.972656)"/>
</clipPath>
</defs>
</svg>
