<svg width="35" height="34" viewBox="0 0 35 34" fill="none" xmlns="http://www.w3.org/2000/svg">
<g clip-path="url(#clip0_2058_1588)">
<path d="M8.41208 11.8553C9.87113 11.8676 10.9284 12.2883 11.5839 13.1167C12.2394 13.9451 12.4557 15.0765 12.2331 16.5111C12.1467 17.1666 11.9549 17.8095 11.6581 18.4402C11.3736 19.0708 10.9781 19.6395 10.471 20.1467C9.85259 20.7896 9.19113 21.1977 8.48627 21.3709C7.78141 21.5441 7.05171 21.6306 6.29751 21.6306H4.07164L3.36679 25.1549H0.788498L3.44098 11.8553H8.41208ZM30.4023 11.8553C31.8613 11.8676 32.9186 12.2883 33.5741 13.1167C34.2296 13.9451 34.4459 15.0765 34.2233 16.5111C34.1369 17.1666 33.9451 17.8095 33.6483 18.4402C33.3638 19.0708 32.9683 19.6395 32.4612 20.1467C31.8428 20.7896 31.1813 21.1977 30.4765 21.3709C29.7716 21.5441 29.0419 21.6306 28.2877 21.6306H26.0618L25.357 25.1549H22.7787L25.4312 11.8553H30.4023ZM17.7299 8.3125L17.0065 11.8553H19.3065C20.5679 11.8802 21.5076 12.1399 22.126 12.6344C22.7566 13.1289 22.9421 14.0689 22.6824 15.4538L21.4397 21.6306H18.8428L20.03 15.732C20.1535 15.1136 20.1164 14.6748 19.9187 14.4151C19.7209 14.1554 19.2943 14.0255 18.6388 14.0255L16.5799 14.007L15.0589 21.6306H12.4991L15.1702 8.3125H17.7299ZM6.4088 13.9699C6.26041 13.9821 6.11832 13.9884 5.98218 13.9884L5.60745 13.9884L4.49827 19.5346C4.57246 19.5468 4.64666 19.5531 4.72085 19.5531H4.98054C6.16766 19.5654 7.15705 19.4481 7.94835 19.2007C8.73966 18.941 9.27162 18.0384 9.54356 16.4925C9.76614 15.1941 9.54356 14.4459 8.8758 14.2481C8.22029 14.0504 7.39819 13.9577 6.4088 13.9699ZM28.399 13.9699C28.2506 13.9821 28.1085 13.9884 27.9724 13.9884L27.5976 13.9884L26.4885 19.5346C26.5627 19.5468 26.6368 19.5531 26.711 19.5531H26.9707C28.1579 19.5654 29.1472 19.4481 29.9385 19.2007C30.7298 18.941 31.2618 18.0384 31.5337 16.4925C31.7563 15.1941 31.5337 14.4459 30.866 14.2481C30.2105 14.0504 29.3884 13.9577 28.399 13.9699Z" fill="currentColor"/>
</g>
<defs>
<clipPath id="clip0_2058_1588">
<rect width="33.5195" height="33.5195" fill="currentColor" transform="translate(0.788498 -0.00195312)"/>
</clipPath>
</defs>
</svg>
