<svg width="37" height="33" viewBox="0 0 37 33" fill="none" xmlns="http://www.w3.org/2000/svg">
<path d="M18.1623 13.1496C18.779 13.1497 19.3819 13.3321 19.895 13.6741C20.4082 14.016 20.8088 14.5021 21.0462 15.0712C21.2837 15.6403 21.3475 16.2669 21.2296 16.8722C21.1117 17.4775 20.8174 18.0344 20.3837 18.4727C19.95 18.9111 19.3963 19.2113 18.7923 19.3357C18.1883 19.46 17.561 19.4029 16.9894 19.1714C16.4178 18.94 15.9275 18.5447 15.5801 18.0352C15.2327 17.5257 15.0438 16.9248 15.0372 16.3082C15.035 15.8956 15.1141 15.4866 15.27 15.1046C15.4258 14.7225 15.6554 14.3749 15.9456 14.0816C16.2358 13.7883 16.5809 13.5551 16.9613 13.3952C17.3416 13.2352 17.7498 13.1518 18.1623 13.1496ZM10.4248 29.6776C11.4776 30.3127 13.7671 29.3434 16.441 26.8366C15.5473 25.821 14.7051 24.7613 13.9175 23.6614C12.5696 23.5104 11.2307 23.2873 9.9067 22.9929C9.0544 26.5692 9.37192 29.0259 10.4248 29.6776ZM11.6113 20.085L11.1267 19.2327C10.9377 19.7021 10.7759 20.182 10.642 20.6699C11.0932 20.7702 11.5946 20.8538 12.1127 20.9373L11.6113 20.085ZM22.5408 18.8149L23.8945 16.3082L22.5408 13.8014C22.0395 12.9157 21.5047 12.1302 21.0201 11.3447C20.1176 11.2946 19.1651 11.2946 18.1623 11.2946C17.1596 11.2946 16.2071 11.2946 15.3046 11.2946C14.82 12.0801 14.2852 12.8655 13.7838 13.7512L12.4302 16.3082L13.7838 18.8149C14.2852 19.7007 14.82 20.4861 15.3046 21.2716C16.2071 21.2716 17.1596 21.2716 18.1623 21.2716C19.1651 21.2716 20.1176 21.2716 21.0201 21.2716C21.5047 20.4861 22.0395 19.7007 22.5408 18.8149ZM18.1623 7.58458C17.8448 7.95224 17.5106 8.33661 17.1764 8.78783H19.1483C18.8141 8.33661 18.4799 7.95224 18.1623 7.58458ZM18.1623 25.0317C18.4799 24.6641 18.8141 24.2797 19.1483 23.8285H17.1764C17.5106 24.2797 17.8448 24.6641 18.1623 25.0317ZM25.8832 2.93869C24.8471 2.30364 22.5408 3.27292 19.8837 5.7797C20.7774 6.79528 21.6196 7.85503 22.4072 8.95495C23.7539 9.08383 25.0927 9.28466 26.418 9.55657C27.2703 5.98024 26.9528 3.5236 25.8832 2.87184M24.7134 12.4644L25.198 13.3167C25.387 12.8473 25.5488 12.3675 25.6827 11.8795C25.2315 11.7793 24.7301 11.6957 24.212 11.6121L24.7134 12.4644ZM27.1366 0.766148C29.5932 2.16994 29.8606 5.86326 28.8078 10.1749C33.0526 11.4283 36.1109 13.5173 36.1109 16.3249C36.1109 19.1325 33.0526 21.2214 28.8078 22.4748C29.8439 26.7865 29.5765 30.4798 27.1366 31.8836C24.6967 33.2874 21.371 31.683 18.1623 28.6248C14.9537 31.683 11.628 33.2874 9.17138 31.8836C6.71474 30.4798 6.46406 26.87 7.5002 22.4748C3.25539 21.2214 0.197124 19.1325 0.197124 16.3249C0.197124 13.5173 3.25539 11.4116 7.5002 10.1582C6.46406 5.84655 6.73145 2.15323 9.17138 0.749437C11.6113 -0.654358 14.9537 0.949978 18.1623 4.00824C21.371 0.949978 24.6967 -0.654358 27.1366 0.749437M26.652 16.3082C27.2324 17.5384 27.7456 18.7992 28.1895 20.085C31.6989 19.0322 33.6709 17.5281 33.6709 16.3082C33.6709 15.0882 31.6488 13.5841 28.1895 12.5313C27.7456 13.8171 27.2324 15.0779 26.652 16.3082ZM9.67274 16.3082C9.09233 15.0779 8.57908 13.8171 8.13525 12.5313C4.62576 13.5841 2.65376 15.0882 2.65376 16.3082C2.65376 17.5281 4.6759 19.0322 8.13525 20.085C8.57908 18.7992 9.09233 17.5384 9.67274 16.3082ZM24.7134 20.085L24.212 20.9373C24.7301 20.9373 25.2315 20.7702 25.6827 20.6699C25.5488 20.182 25.387 19.7021 25.198 19.2327L24.7134 20.085ZM19.8335 26.8366C22.4907 29.3434 24.8471 30.3127 25.8331 29.6776C26.8191 29.0426 27.2202 26.6361 26.3679 22.9929C25.0426 23.2648 23.7037 23.4656 22.357 23.5945C21.5713 24.7172 20.729 25.7993 19.8335 26.8366ZM11.6113 12.5313L12.1127 11.679C11.5946 11.679 11.0932 11.8461 10.642 11.9464C10.7759 12.4343 10.9377 12.9142 11.1267 13.3836L11.6113 12.5313ZM16.4912 5.7797C13.7838 3.27292 11.4776 2.30364 10.4248 2.93869C9.37192 3.57374 9.0544 5.98024 9.9067 9.62342C11.232 9.35151 12.5708 9.15068 13.9175 9.0218C14.7196 7.89791 15.5786 6.8158 16.4912 5.7797Z" fill="currentColor"/>
</svg>
