<svg width="17" height="17" viewBox="0 0 17 17" fill="none" xmlns="http://www.w3.org/2000/svg">
<path d="M16.7557 15.6163L12.4577 11.3503C13.4738 10.1129 14.0267 8.57939 14.0267 6.96179C14.0267 5.10225 13.2972 3.35396 11.9726 2.03914C10.6477 0.724129 8.88634 0 7.01312 0C5.13994 0 3.37833 0.724129 2.054 2.03889C0.729285 3.35364 0 5.10183 0 6.96153C0 8.82081 0.729285 10.569 2.05413 11.8842C3.37833 13.1992 5.13997 13.9232 7.01325 13.9232C8.64305 13.9232 10.1879 13.3743 11.4346 12.3657L15.7328 16.6321C15.8738 16.772 16.0593 16.8421 16.2443 16.8421C16.4292 16.8421 16.6148 16.7722 16.7558 16.6321C17.0386 16.3514 17.0386 15.8968 16.756 15.6164L16.7557 15.6163ZM3.07696 10.8684C2.02541 9.82467 1.44652 8.4373 1.44652 6.96146C1.44652 5.48567 2.02554 4.09826 3.07696 3.05451C4.12851 2.01077 5.52626 1.43617 7.01312 1.43617C8.49995 1.43617 9.89773 2.0109 10.9493 3.05451C12.0008 4.098 12.5796 5.48551 12.5796 6.96114C12.5796 8.43678 12.001 9.82409 10.9493 10.8681C9.8976 11.912 8.49999 12.4867 7.01312 12.4867C5.52626 12.4867 4.12851 11.9117 3.07696 10.8682V10.8684Z" fill="#808080"/>
</svg>
