<svg width="15" height="19" viewBox="0 0 15 19" fill="none" xmlns="http://www.w3.org/2000/svg">
<path fill-rule="evenodd" clip-rule="evenodd" d="M10.2866 11.75H4.7133C3.07298 11.8314 1.61974 12.8334 0.960302 14.3375C0.164927 15.899 1.7523 17.375 3.59843 17.375H11.4014C13.2487 17.375 14.8361 15.899 14.0396 14.3375C13.3801 12.8334 11.9269 11.8314 10.2866 11.75Z" stroke="#7E7E7E" stroke-width="1.5" stroke-linecap="round" stroke-linejoin="round"/>
<path fill-rule="evenodd" clip-rule="evenodd" d="M10.8749 5C10.8749 6.86396 9.3639 8.375 7.49994 8.375C5.63598 8.375 4.12494 6.86396 4.12494 5C4.12494 3.13604 5.63598 1.625 7.49994 1.625C8.39504 1.625 9.25349 1.98058 9.88642 2.61351C10.5194 3.24645 10.8749 4.10489 10.8749 5Z" stroke="#7E7E7E" stroke-width="1.5" stroke-linecap="round" stroke-linejoin="round"/>
</svg>
