<svg width="33" height="23" viewBox="0 0 33 23" fill="none" xmlns="http://www.w3.org/2000/svg">
<path d="M2 10.1457C1.30964 10.1457 0.75 10.7053 0.75 11.3957C0.75 12.086 1.30964 12.6457 2 12.6457V10.1457ZM31 12.6457C31.6904 12.6457 32.25 12.086 32.25 11.3957C32.25 10.7053 31.6904 10.1457 31 10.1457V12.6457ZM2 0.464844C1.30964 0.464844 0.75 1.02449 0.75 1.71484C0.75 2.4052 1.30964 2.96484 2 2.96484V0.464844ZM21.3326 2.96484C22.023 2.96484 22.5826 2.4052 22.5826 1.71484C22.5826 1.02449 22.023 0.464844 21.3326 0.464844V2.96484ZM2 19.8237C1.30964 19.8237 0.75 20.3833 0.75 21.0737C0.75 21.764 1.30964 22.3237 2 22.3237V19.8237ZM21.3326 22.3237C22.023 22.3237 22.5826 21.764 22.5826 21.0737C22.5826 20.3833 22.023 19.8237 21.3326 19.8237V22.3237ZM2 12.6457H31V10.1457H2V12.6457ZM2 2.96484H21.3326V0.464844H2V2.96484ZM2 22.3237H21.3326V19.8237H2V22.3237Z" fill="black"/>
</svg>
